<svg width="134" height="90" viewBox="0 0 134 90" fill="none" xmlns="http://www.w3.org/2000/svg">
<g clip-path="url(#clip0_1326_1184)">
<mask id="mask0_1326_1184" style="mask-type:alpha" maskUnits="userSpaceOnUse" x="0" y="0" width="134" height="90">
<path d="M121.174 0.177734H13.0687C6.04462 0.177734 0.350464 5.49228 0.350464 12.0481V77.3352C0.350464 83.891 6.04462 89.2056 13.0687 89.2056H121.174C128.198 89.2056 133.892 83.891 133.892 77.3352V12.0481C133.892 5.49228 128.198 0.177734 121.174 0.177734Z" fill="white"/>
</mask>
<g mask="url(#mask0_1326_1184)">
<path d="M121.174 0.177734H13.0687C6.04462 0.177734 0.350464 5.49228 0.350464 12.0481V77.3352C0.350464 83.891 6.04462 89.2056 13.0687 89.2056H121.174C128.198 89.2056 133.892 83.891 133.892 77.3352V12.0481C133.892 5.49228 128.198 0.177734 121.174 0.177734Z" fill="white"/>
<path fill-rule="evenodd" clip-rule="evenodd" d="M0.350464 0.177734H44.8644V89.2056H0.350464V0.177734Z" fill="#001C98"/>
<path fill-rule="evenodd" clip-rule="evenodd" d="M89.3783 0.177734H133.892V89.2056H89.3783V0.177734Z" fill="#F02532"/>
<path d="M121.174 3.14529H13.0686C7.80053 3.14529 3.52991 7.13121 3.52991 12.0481V77.3352C3.52991 82.252 7.80053 86.238 13.0686 86.238H121.174C126.442 86.238 130.713 82.252 130.713 77.3352V12.0481C130.713 7.13121 126.442 3.14529 121.174 3.14529Z" stroke="black" stroke-opacity="0.1" stroke-width="6.35913"/>
</g>
</g>
<defs>
<clipPath id="clip0_1326_1184">
<rect width="133.542" height="89.0278" fill="white" transform="translate(0.350464 0.177734)"/>
</clipPath>
</defs>
</svg>
