<svg width="134" height="90" viewBox="0 0 134 90" fill="none" xmlns="http://www.w3.org/2000/svg">
<g clip-path="url(#clip0_1326_1186)">
<mask id="mask0_1326_1186" style="mask-type:alpha" maskUnits="userSpaceOnUse" x="0" y="0" width="134" height="90">
<path d="M121.162 0.724609H13.057C6.03291 0.724609 0.338745 6.03916 0.338745 12.595V77.8821C0.338745 84.4379 6.03291 89.7525 13.057 89.7525H121.162C128.186 89.7525 133.881 84.4379 133.881 77.8821V12.595C133.881 6.03916 128.186 0.724609 121.162 0.724609Z" fill="white"/>
</mask>
<g mask="url(#mask0_1326_1186)">
<path d="M121.162 0.724609H13.057C6.03291 0.724609 0.338745 6.03916 0.338745 12.595V77.8821C0.338745 84.4379 6.03291 89.7525 13.057 89.7525H121.162C128.186 89.7525 133.881 84.4379 133.881 77.8821V12.595C133.881 6.03916 128.186 0.724609 121.162 0.724609Z" fill="#22438B"/>
<path fill-rule="evenodd" clip-rule="evenodd" d="M19.4163 6.65979L6.53265 6.81411L6.69799 18.5302L114.689 83.9835L127.642 83.7639L127.401 72.119L19.4163 6.65979Z" fill="white"/>
<path fill-rule="evenodd" clip-rule="evenodd" d="M13.0571 6.65979L6.698 12.595L121.162 83.8173L127.522 77.8821L13.0571 6.65979Z" fill="#C7152A"/>
<path fill-rule="evenodd" clip-rule="evenodd" d="M114.803 6.65979H127.521V18.5302C127.521 18.5302 52.8017 62.4268 19.5307 83.9834C19.1301 84.2446 6.82514 84.0013 6.82514 84.0013L5.83948 72.7185L114.803 6.65979Z" fill="white"/>
<path fill-rule="evenodd" clip-rule="evenodd" d="M121.436 6.49353L127.522 12.5949L13.0571 83.8172L6.698 77.882L121.436 6.49353Z" fill="#C7152A"/>
<path fill-rule="evenodd" clip-rule="evenodd" d="M51.2119 6.65979H83.0076V30.4006H127.522V60.0765H83.0076V83.8173H51.2119V60.0765H6.698V30.4006H51.2119V6.65979Z" fill="white"/>
<path fill-rule="evenodd" clip-rule="evenodd" d="M57.5711 6.65979H76.6484V36.3357H127.522V54.1413H76.6484V83.8173H57.5711V54.1413H6.698V36.3357H57.5711V6.65979Z" fill="#C7152A"/>
<path d="M121.162 3.6922H13.0569C7.78881 3.6922 3.51819 7.67811 3.51819 12.595V77.8821C3.51819 82.7989 7.78881 86.7849 13.0569 86.7849H121.162C126.43 86.7849 130.701 82.7989 130.701 77.8821V12.595C130.701 7.67811 126.43 3.6922 121.162 3.6922Z" stroke="black" stroke-opacity="0.1" stroke-width="6.35913"/>
</g>
</g>
<defs>
<clipPath id="clip0_1326_1186">
<rect width="133.542" height="89.0278" fill="white" transform="translate(0.338745 0.724609)"/>
</clipPath>
</defs>
</svg>
