<svg width="54" height="55" viewBox="0 0 54 55" fill="none" xmlns="http://www.w3.org/2000/svg">
<path d="M29.2512 8.72V15.704L25.4352 17.432L25.5072 16.676C25.5072 15.356 25.1352 14.36 24.3912 13.688C23.6712 13.016 22.5072 12.68 20.8992 12.68C20.3232 12.68 19.3992 12.752 18.1272 12.896C16.8552 13.04 15.7632 13.82 14.8512 15.236C13.9392 16.628 13.4832 18.836 13.4832 21.86C13.4832 24.884 14.2632 27.176 15.8232 28.736C17.4072 30.272 19.8312 31.04 23.0952 31.04C24.7032 31.04 26.3832 30.872 28.1352 30.536L29.7552 30.176L28.1352 34.388L26.7312 34.748C25.7232 34.988 24.6792 35.168 23.5992 35.288C22.5432 35.408 21.5592 35.468 20.6472 35.468C16.4952 35.468 13.2552 34.352 10.9272 32.12C8.6232 29.864 7.4712 26.804 7.4712 22.94C7.4712 22.46 7.4832 22.088 7.5072 21.824C7.5312 21.536 7.6872 20.264 7.9752 18.008C8.2632 15.752 9.8832 13.616 12.8352 11.6C15.8112 9.56 19.9392 8.54 25.2192 8.54L26.8392 8.612L28.7112 8.684L29.2512 8.72Z" fill="#AE0016"/>
<path d="M23.6494 46L24.8374 42.94C25.3174 42.94 25.7254 42.772 26.0614 42.436C26.4214 42.076 26.7334 41.644 26.9974 41.14C27.2614 40.612 27.5974 39.808 28.0054 38.728L29.7334 33.976L30.1654 32.752L32.1814 26.92C32.6854 25.432 33.0694 24.268 33.3334 23.428C33.6214 22.564 33.8614 21.7 34.0534 20.836L39.7054 19.576C40.0174 21.04 40.3654 22.372 40.7494 23.572C41.1334 24.772 41.5054 25.924 41.8654 27.028L43.8094 33.04C44.3614 34.672 44.8414 36.088 45.2494 37.288C45.6814 38.464 46.0774 39.496 46.4374 40.384C46.8214 41.272 47.1454 41.896 47.4094 42.256C47.6974 42.592 48.1654 42.808 48.8134 42.904L49.1734 42.94L48.0214 46H37.4374L38.6254 42.904L39.0574 42.868C39.9694 42.628 40.4254 42.1 40.4254 41.284C40.4254 41.044 40.4134 40.864 40.3894 40.744L40.3174 40.276L40.2454 40.132L39.9574 39.052C39.7894 38.524 39.6334 38.164 39.4894 37.972C39.3694 37.756 39.2494 37.648 39.1294 37.648H35.7814L32.2534 37.684C32.1574 37.684 32.0494 37.792 31.9294 38.008C31.8334 38.2 31.7254 38.524 31.6054 38.98L31.3174 40.204L31.2814 40.348C31.2574 40.444 31.2454 40.588 31.2454 40.78C31.2454 41.428 31.5214 41.956 32.0734 42.364C32.6254 42.748 33.4534 42.94 34.5574 42.94H35.2054L34.0174 46H23.6494ZM32.7214 34.624H38.6974L38.3014 33.148L38.1574 32.68L37.2574 29.836C36.8494 28.468 36.5614 27.484 36.3934 26.884C36.2494 26.26 36.1294 25.6 36.0334 24.904L35.4214 26.992L34.4494 29.728L33.5854 32.248L33.1534 33.364L32.7214 34.624Z" fill="white"/>
</svg>
