<svg width="69" height="59" viewBox="0 0 69 59" fill="none" xmlns="http://www.w3.org/2000/svg">
<path fill-rule="evenodd" clip-rule="evenodd" d="M6.9047 18.7451C6.9047 13.9385 8.26251 11.0124 10.158 9.25235C12.0948 7.45389 15.0831 6.41568 19.2341 6.41568H50.0576C54.2087 6.41568 57.197 7.45389 59.1338 9.25235C61.0292 11.0124 62.387 13.9385 62.387 18.7451C62.387 20.4474 63.7671 21.8274 65.4694 21.8274C67.1717 21.8274 68.5518 20.4474 68.5518 18.7451C68.5518 12.7635 66.8272 7.98365 63.3286 4.7349C59.8712 1.52454 55.1537 0.250977 50.0576 0.250977H19.2341C14.1381 0.250977 9.4205 1.52454 5.96319 4.7349C2.46453 7.98365 0.73999 12.7635 0.73999 18.7451V40.3216C0.73999 46.3032 2.46453 51.083 5.96319 54.3318C9.4205 57.5421 14.1381 58.8157 19.2341 58.8157H50.0576C55.1537 58.8157 59.8712 57.5421 63.3286 54.3318C66.8272 51.083 68.5518 46.3032 68.5518 40.3216V32.554C68.5518 30.8517 67.1717 29.4717 65.4694 29.4717C63.7671 29.4717 62.387 30.8517 62.387 32.554V40.3216C62.387 45.1282 61.0292 48.0542 59.1338 49.8143C57.197 51.6128 54.2087 52.651 50.0576 52.651H19.2341C15.0831 52.651 12.0948 51.6128 10.158 49.8143C8.26251 48.0542 6.9047 45.1282 6.9047 40.3216V18.7451ZM51.9814 22.6945C53.3115 21.6321 53.5286 19.6926 52.4662 18.3624C51.4037 17.0323 49.4642 16.8153 48.1341 17.8777L38.4901 25.5805L38.4887 25.5816C36.4383 27.2126 32.8256 27.2131 30.7743 25.5831L21.1616 17.8807C19.8332 16.8162 17.8933 17.0302 16.8288 18.3587C15.7643 19.6871 15.9783 21.627 17.3068 22.6915L26.9237 30.3974L26.9237 30.3974L26.9313 30.4034C31.2297 33.8255 38.0314 33.8255 42.3298 30.4034L42.3336 30.4004L51.9814 22.6945Z" fill="#AE0016"/>
</svg>
