<svg width="60" height="60" viewBox="0 0 60 60" fill="none" xmlns="http://www.w3.org/2000/svg">
<path d="M17.0195 0.422241C7.99036 0.422241 0.644531 7.76807 0.644531 16.7972V42.9972C0.644531 52.0264 7.99036 59.3722 17.0195 59.3722H43.2195C52.2487 59.3722 59.5945 52.0264 59.5945 42.9972V16.7972C59.5945 7.76807 52.2487 0.422241 43.2195 0.422241H17.0195ZM17.0195 6.97224H43.2195C48.6364 6.97224 53.0445 11.3804 53.0445 16.7972V42.9972C53.0445 48.4141 48.6364 52.8222 43.2195 52.8222H17.0195C11.6027 52.8222 7.19453 48.4141 7.19453 42.9972V16.7972C7.19453 11.3804 11.6027 6.97224 17.0195 6.97224ZM46.4945 10.2472C45.6259 10.2472 44.7929 10.5923 44.1788 11.2065C43.5646 11.8206 43.2195 12.6537 43.2195 13.5222C43.2195 14.3908 43.5646 15.2238 44.1788 15.838C44.7929 16.4522 45.6259 16.7972 46.4945 16.7972C47.3631 16.7972 48.1961 16.4522 48.8103 15.838C49.4245 15.2238 49.7695 14.3908 49.7695 13.5222C49.7695 12.6537 49.4245 11.8206 48.8103 11.2065C48.1961 10.5923 47.3631 10.2472 46.4945 10.2472ZM30.1195 13.5222C21.0904 13.5222 13.7445 20.8681 13.7445 29.8972C13.7445 38.9264 21.0904 46.2722 30.1195 46.2722C39.1487 46.2722 46.4945 38.9264 46.4945 29.8972C46.4945 20.8681 39.1487 13.5222 30.1195 13.5222ZM30.1195 20.0722C35.5364 20.0722 39.9445 24.4804 39.9445 29.8972C39.9445 35.3141 35.5364 39.7222 30.1195 39.7222C24.7027 39.7222 20.2945 35.3141 20.2945 29.8972C20.2945 24.4804 24.7027 20.0722 30.1195 20.0722Z" fill="#AE0016"/>
</svg>
