<svg width="163" height="158" viewBox="0 0 163 158" fill="none" xmlns="http://www.w3.org/2000/svg">
<path d="M84.0307 25.5047V45.5679L73.0684 50.5319L73.2752 48.3601C73.2752 44.5681 72.2066 41.7069 70.0693 39.7764C68.0009 37.846 64.6571 36.8807 60.0377 36.8807C58.383 36.8807 55.7286 37.0876 52.0745 37.5012C48.4204 37.9149 45.2834 40.1556 42.6635 44.2234C40.0435 48.2223 38.7336 54.5652 38.7336 63.2524C38.7336 71.9395 40.9743 78.5238 45.4557 83.0052C50.0061 87.4177 56.9696 89.624 66.3462 89.624C70.9656 89.624 75.7917 89.1414 80.8248 88.1761L85.4786 87.142L80.8248 99.2419L76.7915 100.276C73.8957 100.966 70.8966 101.483 67.7941 101.827C64.7605 102.172 61.9337 102.344 59.3138 102.344C47.3862 102.344 38.0786 99.1385 31.3909 92.7265C24.7721 86.2457 21.4627 77.4551 21.4627 66.3549C21.4627 64.976 21.4972 63.9073 21.5661 63.1489C21.6351 62.3216 22.0832 58.6675 22.9106 52.1866C23.7379 45.7057 28.3917 39.5696 36.872 33.7782C45.4213 27.9178 57.2799 24.9876 72.4479 24.9876L77.1017 25.1945L82.4795 25.4013L84.0307 25.5047Z" fill="#AE0016"/>
<path d="M67.0838 133L70.4966 124.209C71.8755 124.209 73.0475 123.727 74.0128 122.762C75.047 121.727 75.9432 120.486 76.7016 119.039C77.46 117.522 78.4253 115.212 79.5974 112.11L84.5614 98.4583L85.8024 94.9421L91.5939 78.1884C93.0417 73.9137 94.1448 70.5699 94.9032 68.1568C95.7306 65.6748 96.42 63.1927 96.9716 60.7107L113.208 57.0911C114.105 61.2967 115.104 65.1232 116.207 68.5705C117.311 72.0177 118.379 75.3271 119.413 78.4986L124.998 95.7695C126.584 100.458 127.963 104.526 129.135 107.973C130.376 111.351 131.513 114.316 132.547 116.867C133.651 119.418 134.581 121.21 135.34 122.245C136.167 123.21 137.512 123.83 139.373 124.106L140.407 124.209L137.098 133H106.693L110.106 124.106L111.347 124.003C113.967 123.313 115.277 121.796 115.277 119.452C115.277 118.763 115.242 118.246 115.173 117.901L114.966 116.557L114.76 116.143L113.932 113.04C113.45 111.523 113.001 110.489 112.588 109.938C112.243 109.317 111.898 109.007 111.554 109.007H101.936L91.8007 109.11C91.5249 109.11 91.2147 109.421 90.8699 110.041C90.5942 110.593 90.2839 111.523 89.9392 112.833L89.1118 116.35L89.0084 116.763C88.9395 117.039 88.905 117.453 88.905 118.004C88.905 119.866 89.6979 121.383 91.2836 122.555C92.8694 123.658 95.248 124.209 98.4195 124.209H100.281L96.8682 133H67.0838ZM93.1451 100.32H110.313L109.175 96.0797L108.761 94.7353L106.176 86.5652C105.004 82.6353 104.176 79.8086 103.694 78.0849C103.28 76.2924 102.935 74.3964 102.66 72.3969L100.901 78.3952L98.1092 86.255L95.6272 93.4943L94.3862 96.7002L93.1451 100.32Z" fill="white"/>
</svg>
