<svg width="62" height="62" viewBox="0 0 62 62" fill="none" xmlns="http://www.w3.org/2000/svg">
<path d="M7.34826 0.511108C3.60214 0.511108 0.555664 3.55759 0.555664 7.3037V54.8519C0.555664 58.598 3.60214 61.6444 7.34826 61.6444H29.8355H39.3212H54.8964C58.6425 61.6444 61.689 58.598 61.689 54.8519V7.3037C61.689 3.55759 58.6425 0.511108 54.8964 0.511108H7.34826ZM7.34826 7.3037H54.8964L54.903 54.8519H39.3212V41.3861H47.3542L48.5483 32.1325H39.3743V26.2354C39.3743 23.5591 40.1201 21.7512 43.9579 21.7512H48.807V13.4927C46.4465 13.2515 44.0766 13.1343 41.7026 13.1411C34.6587 13.1411 29.8355 17.4403 29.8355 25.3333V32.1458H21.8754V41.3993H29.8355V54.8519H7.34826V7.3037Z" fill="#AE0016"/>
</svg>
